<svg width="192" height="192" viewBox="0 0 192 192" fill="none" xmlns="http://www.w3.org/2000/svg">
<rect width="192" height="192" fill="#5C61FF"/>
<path d="M137.049 115.07V108.958H155.926C157.163 108.958 158.221 108.701 159.097 108.185C160.026 107.617 160.722 106.895 161.186 106.019C161.65 105.142 161.883 104.213 161.883 103.234C161.883 102.305 161.676 101.454 161.264 100.681C160.851 99.8553 160.206 99.2106 159.33 98.7465C158.504 98.2307 157.499 97.9728 156.312 97.9728H148.344C145.817 97.9728 143.599 97.5602 141.691 96.735C139.834 95.8582 138.364 94.5946 137.281 92.9442C136.249 91.2938 135.734 89.2823 135.734 86.9098C135.734 84.8984 136.224 83.0417 137.204 81.3397C138.183 79.6377 139.55 78.2709 141.304 77.2394C143.057 76.1563 145.069 75.6147 147.338 75.6147H165.519V81.7265H148.034C146.436 81.7265 145.172 82.2164 144.244 83.1964C143.315 84.1763 142.851 85.3368 142.851 86.6777C142.851 87.9671 143.315 89.1018 144.244 90.0817C145.224 91.0101 146.59 91.4743 148.344 91.4743H155.926C158.762 91.4743 161.135 91.9385 163.043 92.8668C165.003 93.7436 166.473 95.033 167.453 96.735C168.484 98.437 169 100.526 169 103.001C169 105.116 168.484 107.102 167.453 108.958C166.421 110.764 164.977 112.234 163.12 113.368C161.315 114.503 159.201 115.07 156.777 115.07H137.049Z" fill="white"/>
<path d="M108.14 74.6865C111.132 74.6865 113.865 75.1765 116.341 76.1564C118.817 77.0848 120.957 78.4773 122.762 80.3341C124.567 82.1908 125.96 84.4343 126.94 87.0647C127.971 89.6435 128.487 92.5575 128.487 95.8068C128.487 99.8813 127.636 103.44 125.934 106.483C124.284 109.526 122.014 111.873 119.126 113.523C116.238 115.173 112.963 115.999 109.301 115.999C107.289 115.999 105.355 115.663 103.499 114.993C101.693 114.322 100.069 113.394 98.6247 112.208C97.2321 110.97 96.0975 109.577 95.2207 108.03H95.0659V132.09H87.9485V95.5747C87.9485 91.1392 88.8253 87.3741 90.5788 84.2796C92.384 81.1851 94.8081 78.8126 97.851 77.1622C100.894 75.5117 104.324 74.6865 108.14 74.6865ZM108.14 80.7982C105.768 80.7982 103.576 81.3914 101.564 82.5776C99.6046 83.7638 98.0315 85.4401 96.8453 87.6062C95.7106 89.7724 95.1433 92.3254 95.1433 95.2652C95.1433 98.2566 95.7106 100.861 96.8453 103.079C98.0315 105.245 99.6046 106.921 101.564 108.108C103.576 109.294 105.794 109.887 108.218 109.887C110.693 109.887 112.911 109.268 114.871 108.03C116.831 106.792 118.378 105.09 119.513 102.924C120.699 100.758 121.292 98.2308 121.292 95.3426C121.292 92.3512 120.699 89.7724 119.513 87.6062C118.327 85.4401 116.728 83.7638 114.716 82.5776C112.756 81.3914 110.564 80.7982 108.14 80.7982Z" fill="white"/>
<path d="M51.1603 116.076C46.8796 116.076 43.0114 115.354 39.5558 113.91C36.1002 112.414 33.1346 110.377 30.659 107.798C28.2349 105.219 26.3524 102.228 25.0115 98.824C23.6705 95.42 23 91.784 23 87.9158C23 84.0992 23.6705 80.4889 25.0115 77.0849C26.3524 73.6809 28.2349 70.6895 30.659 68.1107C33.1346 65.5319 36.1002 63.5205 39.5558 62.0763C43.0114 60.6322 46.8796 59.9102 51.1603 59.9102C55.4411 59.9102 59.3093 60.6322 62.7649 62.0763C66.2205 63.5205 69.1603 65.5319 71.5843 68.1107C74.06 70.6895 75.9683 73.6809 77.3092 77.0849C78.6502 80.4889 79.3207 84.125 79.3207 87.9931C79.3207 91.8097 78.6502 95.42 77.3092 98.824C75.9683 102.228 74.06 105.219 71.5843 107.798C69.1603 110.377 66.2205 112.414 62.7649 113.91C59.3093 115.354 55.4411 116.076 51.1603 116.076ZM51.1603 109.5C54.1002 109.5 56.8337 108.959 59.3609 107.876C61.8881 106.792 64.0801 105.271 65.9368 103.311C67.8451 101.351 69.315 99.0819 70.3465 96.5031C71.378 93.8728 71.8938 91.0103 71.8938 87.9158C71.8938 84.8728 71.378 82.0361 70.3465 79.4058C69.315 76.7754 67.8709 74.5061 66.0141 72.5978C64.1574 70.6379 61.9397 69.1422 59.3609 68.1107C56.8337 67.0276 54.1002 66.4861 51.1603 66.4861C48.1689 66.4861 45.4096 67.0276 42.8824 68.1107C40.3552 69.1422 38.1633 70.6379 36.3065 72.5978C34.4498 74.5061 33.0057 76.7754 31.9742 79.4058C30.9427 82.0361 30.4269 84.8986 30.4269 87.9931C30.4269 91.0361 30.9427 93.8728 31.9742 96.5031C33.0057 99.0819 34.4498 101.351 36.3065 103.311C38.1633 105.271 40.3552 106.792 42.8824 107.876C45.4096 108.959 48.1689 109.5 51.1603 109.5Z" fill="white"/>
<path d="M47.6933 107.397V86.5027L53.3918 89.36V107.397H47.6933Z" fill="white"/>
<path d="M66.3087 79.5303L53.3918 89.36L47.6933 86.5027L62.8579 74.9956L66.3087 79.5303Z" fill="white"/>
</svg>
