<svg width="192" height="192" viewBox="0 0 192 192" fill="none" xmlns="http://www.w3.org/2000/svg">
<rect width="192" height="192" fill="white"/>
<path d="M149.982 121.078V113.041H174.806C176.434 113.041 177.824 112.702 178.977 112.024C180.198 111.278 181.114 110.328 181.724 109.175C182.335 108.022 182.64 106.801 182.64 105.513C182.64 104.292 182.369 103.173 181.826 102.155C181.284 101.07 180.436 100.222 179.283 99.6117C178.197 98.9334 176.875 98.5943 175.315 98.5943H164.836C161.512 98.5943 158.596 98.0517 156.086 96.9665C153.645 95.8135 151.712 94.1517 150.287 91.9813C148.931 89.8109 148.252 87.1657 148.252 84.0457C148.252 81.4005 148.897 78.9588 150.185 76.7205C151.474 74.4823 153.272 72.6849 155.578 71.3284C157.884 69.9041 160.529 69.1919 163.513 69.1919H187.422V77.2292H164.429C162.326 77.2292 160.665 77.8736 159.444 79.1623C158.223 80.451 157.612 81.977 157.612 83.7405C157.612 85.4361 158.223 86.9283 159.444 88.217C160.732 89.4378 162.53 90.0483 164.836 90.0483H174.806C178.537 90.0483 181.657 90.6587 184.166 91.8796C186.743 93.0326 188.676 94.7282 189.965 96.9665C191.322 99.2047 192 101.952 192 105.207C192 107.988 191.322 110.599 189.965 113.041C188.609 115.415 186.71 117.348 184.268 118.84C181.894 120.332 179.113 121.078 175.925 121.078H149.982Z" fill="#5C61FF"/>
<path d="M111.965 67.9712C115.899 67.9712 119.494 68.6155 122.75 69.9042C126.005 71.1251 128.82 72.9564 131.194 75.3981C133.568 77.8398 135.399 80.7902 136.688 84.2493C138.044 87.6406 138.723 91.4728 138.723 95.7458C138.723 101.104 137.604 105.784 135.365 109.786C133.195 113.787 130.211 116.873 126.412 119.044C122.614 121.214 118.307 122.299 113.492 122.299C110.846 122.299 108.303 121.859 105.861 120.977C103.487 120.095 101.351 118.874 99.4516 117.314C97.6204 115.686 96.1282 113.855 94.9752 111.82H94.7717V143.461H85.4117V95.4406C85.4117 89.6076 86.5648 84.6563 88.8708 80.5868C91.2447 76.5172 94.4326 73.3972 98.4343 71.2268C102.436 69.0564 106.946 67.9712 111.965 67.9712ZM111.965 76.0085C108.845 76.0085 105.963 76.7885 103.318 78.3485C100.74 79.9085 98.6716 82.1128 97.1117 84.9615C95.6195 87.8102 94.8734 91.1675 94.8734 95.0336C94.8734 98.9675 95.6195 102.393 97.1117 105.309C98.6716 108.158 100.74 110.362 103.318 111.922C105.963 113.482 108.879 114.262 112.067 114.262C115.323 114.262 118.239 113.448 120.817 111.82C123.394 110.193 125.429 107.954 126.921 105.106C128.481 102.257 129.261 98.9336 129.261 95.1353C129.261 91.2015 128.481 87.8102 126.921 84.9615C125.361 82.1128 123.258 79.9085 120.613 78.3485C118.036 76.7885 115.153 76.0085 111.965 76.0085Z" fill="#5C61FF"/>
<path d="M37.0328 122.401C31.4033 122.401 26.3163 121.452 21.772 119.552C17.2277 117.586 13.3277 114.906 10.0721 111.515C6.8843 108.124 4.40866 104.19 2.6452 99.7135C0.881733 95.237 0 90.4553 0 85.3684C0 80.3493 0.881733 75.6015 2.6452 71.125C4.40866 66.6485 6.8843 62.7146 10.0721 59.3233C13.3277 55.9321 17.2277 53.2869 21.772 51.3877C26.3163 49.4886 31.4033 48.5391 37.0328 48.5391C42.6623 48.5391 47.7492 49.4886 52.2935 51.3877C56.8379 53.2869 60.7039 55.9321 63.8917 59.3233C67.1473 62.7146 69.6569 66.6485 71.4204 71.125C73.1838 75.6015 74.0656 80.3832 74.0656 85.4701C74.0656 90.4892 73.1838 95.237 71.4204 99.7135C69.6569 104.19 67.1473 108.124 63.8917 111.515C60.7039 114.906 56.8379 117.586 52.2935 119.552C47.7492 121.452 42.6623 122.401 37.0328 122.401ZM37.0328 113.753C40.8988 113.753 44.4936 113.041 47.817 111.617C51.1405 110.193 54.0231 108.192 56.4648 105.614C58.9744 103.037 60.9074 100.053 62.2639 96.6613C63.6204 93.2022 64.2987 89.4379 64.2987 85.3684C64.2987 81.3667 63.6204 77.6362 62.2639 74.1771C60.9074 70.718 59.0083 67.7337 56.5666 65.2242C54.1248 62.6468 51.2083 60.6799 47.817 59.3233C44.4936 57.899 40.8988 57.1868 37.0328 57.1868C33.0989 57.1868 29.4702 57.899 26.1468 59.3233C22.8233 60.6799 19.9407 62.6468 17.499 65.2242C15.0573 67.7337 13.1582 70.718 11.8017 74.1771C10.4451 77.6362 9.76689 81.4006 9.76689 85.4701C9.76689 89.4718 10.4451 93.2022 11.8017 96.6613C13.1582 100.053 15.0573 103.037 17.499 105.614C19.9407 108.192 22.8233 110.193 26.1468 111.617C29.4702 113.041 33.0989 113.753 37.0328 113.753Z" fill="#5C61FF"/>
<path d="M32.4734 110.987V83.51L39.9672 87.2677V110.987H32.4734Z" fill="#5C61FF"/>
<path d="M56.954 74.3409L39.9672 87.2677L32.4734 83.51L52.4158 68.3774L56.954 74.3409Z" fill="#5C61FF"/>
</svg>
